# xmcd
#
# Track frame offsets: 
#        150
#        15426
#        29612
#        46413
#        63478
#        77734
#        86462
#        103982
#        123539
#        141782
#        159362
#        176743
#        190934
#        208190
#        226523
#        246239
#        274255
#
# Disc length: 4317 seconds
#
# Revision: 0
# Processed by: cddbd v1.5.2PL0 Copyright (c) Steve Scherf et al.
# Submitted via: ExactAudioCopy v0.99pb4
#
DISCID=ea10db11
DTITLE=VovaZiL'vova - Вино.Кобіти.Патіфон
DYEAR=2006
DGENRE=Галицько-Волинський Реп
TTITLE0=Старий добрий магнітофон
TTITLE1=Вова зі Львова
TTITLE2=Спіши Жити
TTITLE3=Все Буде файно
TTITLE4=Гарячі танці
TTITLE5=Компот
TTITLE6=За що я люблю літо
TTITLE7=Мені для щастя
TTITLE8=Хороші дівчата
TTITLE9=Для тебе
TTITLE10=Духовне більше
TTITLE11=Пісня про траву
TTITLE12=Дитячі мрії
TTITLE13=Я бачу сон
TTITLE14=(Мій район) Сихів
TTITLE15=Я спокійний
TTITLE16=Бонус відео
EXTD=
EXTT0=
EXTT1=
EXTT2=
EXTT3=
EXTT4=
EXTT5=
EXTT6=
EXTT7=
EXTT8=
EXTT9=
EXTT10=
EXTT11=
EXTT12=
EXTT13=
EXTT14=
EXTT15=
EXTT16=
PLAYORDER=
